# xmcd
#
# Track frame offsets:
#	150
#	15760
#	31818
#	48975
#	63848
#	82469
#	101049
#	120299
#	138942
#	159605
#	175954
#	193292
#	211397
#	244800
#
# Disc length: 3313 seconds
#
# Revision: 0
# Processed by: cddbd v1.5.1PL2 Copyright (c) Steve Scherf et al.
# Submitted via: EasyCDDAExtractor 9.1.3.1
#
DISCID=ba0cef0e
DTITLE=Rascal Flatts - Me and my gang
DYEAR=2006
DGENRE=Country
TTITLE0=Stand
TTITLE1=What hurts the most
TTITLE2=Backwards
TTITLE3=I feel bad
TTITLE4=My wish
TTITLE5=Pieces
TTITLE6=Yes I do
TTITLE7=To make her love me
TTITLE8=Words I could't say
TTITLE9=My and my gang
TTITLE10=Cool thing
TTITLE11=Ellsworth
TTITLE12=He ain't the leavin' kind
TTITLE13=data track
EXTD=
EXTT0=
EXTT1=
EXTT2=
EXTT3=
EXTT4=
EXTT5=
EXTT6=
EXTT7=
EXTT8=
EXTT9=
EXTT10=
EXTT11=
EXTT12=
EXTT13=
PLAYORDER=
